# xmcd
#
# Track frame offsets: 
#        150
#        9821
#        27812
#        33183
#        36264
#        39869
#        50658
#        55588
#        64490
#        69583
#        72534
#        79245
#        92045
#        103421
#        116300
#        125225
#        135474
#        151702
#        161376
#        176937
#        184356
#        195174
#        231619
#        248372
#
# Disc length: 3592 seconds
#
# Revision: 3
# Processed by: cddbd v1.5.2PL0 Copyright (c) Steve Scherf et al.
# Submitted via: ExactAudioCopy v0.95a4
#
DISCID=440e0618
DTITLE=Various Artist - Le Clavecin et son histoire
DYEAR=1980
DGENRE=Classical
TTITLE0=Claudio Merulo - Canzone à 4 ''La Rolonda''
TTITLE1=Girolamo Frescobaldi - Toccata
TTITLE2=William Byrd - French Coranto
TTITLE3=Giles Farnaby - The new So-Hoo
TTITLE4=John Bull - The Duchesse of Brunswick's Toye
TTITLE5=Martin Peerson - The Fall of the Leafe
TTITLE6=Giles Farnaby - A Toye
TTITLE7=Louis Couperin - Suite en fa majeur - I. Prélude non mesuré
TTITLE8=Louis Couperin - Suite en fa majeur - II. Allemande
TTITLE9=Louis Couperin - Suite en fa majeur - III. Branle de basque
TTITLE10=Louis Couperin - Suite en fa majeur - IV. Sarabande
TTITLE11=Louis Couperin - Suite en fa majeur - V. Tombeau de M. de Bla
TTITLE11=ncrocher
TTITLE12=Bernardo Pasquini - Arie
TTITLE13=Jean-François Dandrieu - La Gémissante
TTITLE14=François Couperin - La Létiville
TTITLE15=François Couperin - Muséte de Taverni
TTITLE16=Johann Jakob Froberger - Tombeau de M. de Blancrocher
TTITLE17=Jean Philippe Rameau - Prélude
TTITLE18=Jean Philippe Rameau - Sarabande
TTITLE19=Jean Philippe Rameau - Gavotte
TTITLE20=François Couperin - Le Carillon de Cithère
TTITLE21=Maurice Ohana - Carillons pour les heures du jour et de la nu
TTITLE21=it
TTITLE22=J.S Bach - Prélude et fugue en mi bémol mineur - Prélude
TTITLE23=J.S Bach - Prélude et fugue en mi bémol mineur - Fugue
EXTD=YEAR: 1980
EXTT0=
EXTT1=
EXTT2=
EXTT3=
EXTT4=
EXTT5=
EXTT6=
EXTT7=
EXTT8=
EXTT9=
EXTT10=
EXTT11=
EXTT12=
EXTT13=
EXTT14=
EXTT15=
EXTT16=
EXTT17=
EXTT18=
EXTT19=
EXTT20=
EXTT21=
EXTT22=
EXTT23=
PLAYORDER=
